<?xml version="1.0" standalone="no"?>
<!DOCTYPE svg PUBLIC "-//W3C//DTD SVG 20010904//EN"
 "http://www.w3.org/TR/2001/REC-SVG-20010904/DTD/svg10.dtd">
<svg version="1.0" xmlns="http://www.w3.org/2000/svg"
 width="87.000000pt" height="85.000000pt" viewBox="0 0 87.000000 85.000000"
 preserveAspectRatio="xMidYMid meet">

<g transform="translate(0.000000,85.000000) scale(0.100000,-0.100000)"
fill="#000000" stroke="none">
<path d="M420 773 c-27 -5 -294 -262 -316 -305 -18 -35 -18 -92 0 -126 8 -15
77 -88 153 -163 101 -100 147 -139 171 -144 66 -14 90 0 235 144 76 75 145
148 153 163 18 34 18 91 0 126 -8 15 -76 88 -153 163 -105 103 -146 137 -172
142 -18 4 -36 6 -40 6 -3 -1 -17 -4 -31 -6z m203 -133 l112 -110 -85 0 -85 0
-24 45 -24 45 -56 0 -56 0 -26 -47 -27 -46 26 -43 c29 -48 44 -55 102 -47 34
5 44 12 62 44 l22 39 92 0 93 0 27 -36 c34 -45 37 -108 7 -150 -12 -16 -77
-84 -146 -152 l-125 -122 -52 0 -52 0 -106 105 -107 105 82 0 82 0 22 -40 c22
-39 24 -40 78 -40 55 0 56 1 82 43 l27 44 -27 46 -26 47 -55 0 c-55 0 -55 0
-82 -45 l-28 -45 -84 0 -85 0 -29 36 c-17 20 -32 48 -35 63 -12 60 2 82 148
229 l141 142 53 0 53 0 111 -110z m-104 -76 c21 -35 21 -37 3 -68 -16 -27 -23
-31 -62 -31 -39 0 -46 4 -62 31 -18 31 -18 33 3 68 18 31 26 36 59 36 33 0 41
-5 59 -36z m0 -250 l21 -36 -21 -34 c-18 -29 -26 -34 -59 -34 -33 0 -41 5 -59
34 l-21 34 21 36 c18 31 26 36 59 36 33 0 41 -5 59 -36z"/>
<path d="M247 437 c-18 -33 -18 -34 3 -70 19 -32 27 -37 60 -37 33 0 41 5 60
35 21 34 23 35 90 35 67 0 69 -1 90 -35 19 -30 27 -35 60 -35 33 0 41 5 60 37
21 36 21 37 3 70 -16 30 -22 33 -63 33 -40 0 -47 -4 -62 -30 -16 -29 -20 -30
-88 -30 -68 0 -72 1 -88 30 -15 26 -22 30 -62 30 -41 0 -47 -3 -63 -33z"/>
</g>
</svg>
